<?xml version="1.0" encoding="UTF-8"?>
<svg version="1.1" xmlns="http://www.w3.org/2000/svg" width="400" height="400">
<path d="M0 0 C132 0 264 0 400 0 C400 132 400 264 400 400 C268 400 136 400 0 400 C0 268 0 136 0 0 Z " fill="#835EC7" transform="translate(0,0)"/>
<path d="M0 0 C44.22 0 88.44 0 134 0 C134 8.91 134 17.82 134 27 C144.89 27 155.78 27 167 27 C165.875 37.125 165.875 37.125 164.80859375 40.81640625 C164.58623047 41.59951172 164.36386719 42.38261719 164.13476562 43.18945312 C163.90466797 43.97255859 163.67457031 44.75566406 163.4375 45.5625 C163.20353516 46.38041016 162.96957031 47.19832031 162.72851562 48.04101562 C162.15880046 50.02920527 161.58033086 52.01488299 161 54 C158.69 54 156.38 54 154 54 C154 89.31 154 124.62 154 161 C155.65 161.66 157.3 162.32 159 163 C161.13586678 166.20380017 161.23132175 167.01939967 161.125 170.6875 C161.10695313 171.49574219 161.08890625 172.30398438 161.0703125 173.13671875 C161.04710937 173.75160156 161.02390625 174.36648438 161 175 C161.61875 175.12375 162.2375 175.2475 162.875 175.375 C165 176 165 176 167 178 C167 181.3 167 184.6 167 188 C144.89 188 122.78 188 100 188 C100 180 100 180 101.8125 177 C104 175 104 175 107 175 C106.96519531 174.31292969 106.93039063 173.62585938 106.89453125 172.91796875 C106.86746094 172.01691406 106.84039062 171.11585938 106.8125 170.1875 C106.77769531 169.29417969 106.74289063 168.40085937 106.70703125 167.48046875 C107 165 107 165 108.26171875 163.17578125 C110 162 110 162 114 162 C113.96168726 154.14043742 113.901961 146.28134036 113.81609726 138.42216969 C113.77685895 134.77142041 113.74455645 131.1209038 113.72900391 127.4699707 C113.71367895 123.93590037 113.67896166 120.40247074 113.63169098 116.86868858 C113.60998611 114.88780411 113.60753998 112.90673796 113.60565186 110.92573547 C113.38683052 97.16184018 109.89332652 84.41121446 100.2734375 74.16015625 C98.58214738 72.64262882 96.85567945 71.30989138 95 70 C94.41863281 69.56171875 93.83726562 69.1234375 93.23828125 68.671875 C83.4091128 61.83060891 71.76253566 59.71945459 60 61 C48.20820355 63.29851626 36.35389156 69.21932423 29 79 C22.12814679 90.51671696 20.69798957 100.37026622 20.5859375 113.5625 C20.56719795 114.96355291 20.54762252 116.36459486 20.5272522 117.765625 C20.47621892 121.42825827 20.43644043 125.09092802 20.39910889 128.75372314 C20.35888714 132.50126962 20.30787831 136.24866815 20.2578125 139.99609375 C20.16139497 147.33062718 20.07688254 154.66523301 20 162 C21.2065625 162.185625 21.2065625 162.185625 22.4375 162.375 C23.283125 162.58125 24.12875 162.7875 25 163 C26.26237731 165.52475462 26.09856404 167.31200466 26.0625 170.125 C26.05347656 171.03507813 26.04445312 171.94515625 26.03515625 172.8828125 C26.02355469 173.58148438 26.01195312 174.28015625 26 175 C26.78375 175.12375 27.5675 175.2475 28.375 175.375 C31 176 31 176 33 178 C33 181.3 33 184.6 33 188 C10.89 188 -11.22 188 -34 188 C-34 179 -34 179 -32.1875 176.4375 C-30 175 -30 175 -27 175 C-27.08701172 173.98679687 -27.08701172 173.98679687 -27.17578125 172.953125 C-27.22089844 172.06109375 -27.26601562 171.1690625 -27.3125 170.25 C-27.37050781 169.36828125 -27.42851563 168.4865625 -27.48828125 167.578125 C-27.32714844 166.72734375 -27.16601562 165.8765625 -27 165 C-26.17852982 164.49877625 -25.35705963 163.99755249 -24.51069641 163.48114014 C-21.1982633 160.20770146 -21.39063613 158.22685752 -21.31443787 153.71195984 C-21.32306351 152.72581192 -21.33168915 151.739664 -21.34057617 150.72363281 C-21.33009247 149.67941666 -21.31960876 148.6352005 -21.30880737 147.55934143 C-21.28000026 144.10696913 -21.28635591 140.65559624 -21.29296875 137.203125 C-21.27985723 134.80986266 -21.2645547 132.41661141 -21.24714661 130.02337646 C-21.2072204 123.72359404 -21.19710118 117.42410058 -21.19311523 111.12420654 C-21.18379825 104.695996 -21.14639367 98.26795628 -21.11132812 91.83984375 C-21.0466745 79.22657775 -21.01254446 66.61341992 -21 54 C-23.31 54 -25.62 54 -28 54 C-28.81357655 50.43774498 -29.62567119 46.8751537 -30.4375 43.3125 C-30.78264648 41.80139648 -30.78264648 41.80139648 -31.13476562 40.25976562 C-31.35712891 39.28330078 -31.57949219 38.30683594 -31.80859375 37.30078125 C-32.11494751 35.95753784 -32.11494751 35.95753784 -32.42749023 34.5871582 C-32.98553571 32.06536379 -33.49347102 29.53264491 -34 27 C-22.78 27 -11.56 27 0 27 C0 18.09 0 9.18 0 0 Z " fill="#FDFCFD" transform="translate(134,106)"/>
<path d="M0 0 C132 0 264 0 400 0 C400 132 400 264 400 400 C268 400 136 400 0 400 C0 268 0 136 0 0 Z M2 2 C2 132.68 2 263.36 2 398 C5.96 398 9.92 398 14 398 C14.33 397.67 14.66 397.34 15 397 C17.00297351 396.89713954 19.00963316 396.86598774 21.01524067 396.8613348 C22.33148845 396.85586036 23.64773623 396.85038591 25.00387031 396.84474558 C26.48380675 396.84366916 27.96374325 396.84268451 29.44367981 396.84178162 C31.00086794 396.83722009 32.55805484 396.83222068 34.11524028 396.82681805 C38.41505067 396.8131803 42.71485313 396.80580233 47.01467955 396.79939139 C51.64396644 396.79141181 56.27323666 396.77770545 60.9025116 396.76467896 C68.93084506 396.74287965 76.95918018 396.72474754 84.98752785 396.70907402 C96.59966531 396.6863994 108.21178437 396.65825237 119.82390627 396.62875474 C138.66750816 396.58103775 157.51111758 396.53778705 176.35473633 396.49731445 C194.65454703 396.45800046 212.95435096 396.41657918 231.25415039 396.37231445 C232.94399038 396.36822804 232.94399038 396.36822804 234.66796855 396.36405908 C240.31991242 396.35037874 245.97185619 396.336658 251.62379992 396.32291877 C286.12202311 396.23910599 320.62025202 396.1581573 355.11849296 396.08198678 C357.84190554 396.07597332 360.56531808 396.06994554 363.28873062 396.06391716 C367.48134138 396.05464709 371.67395227 396.04543597 375.86656328 396.03628052 C377.38678296 396.03295816 378.90700261 396.02962365 380.42722223 396.02627604 C382.4872267 396.02174771 384.54723128 396.01727666 386.60723591 396.01282406 C388.3265559 396.00908052 388.3265559 396.00908052 390.08060962 396.00526136 C392.38707 396.00110463 394.69353587 396 397 396 C397.13784266 373.8644178 397.26786221 351.72879824 397.39115143 329.59313011 C397.44868877 319.28781473 397.50796621 308.98251871 397.57275391 298.67724609 C398.18451953 199.78346085 398 100.89865231 398 2 C267.32 2 136.64 2 2 2 Z " fill="#573D83" transform="translate(0,0)"/>
<path d="M0 0 C2.98650485 2.19924592 5.13993726 4.38592192 7.25 7.4375 C3.31830895 7.4375 2.08572772 6.04330385 -0.75 3.4375 C-0.75 2.7775 -0.75 2.1175 -0.75 1.4375 C-1.49121094 1.15132812 -2.23242188 0.86515625 -2.99609375 0.5703125 C-5.75 -0.5625 -5.75 -0.5625 -7.72265625 -1.6328125 C-13.68703435 -4.64287247 -19.25780648 -4.9362952 -25.8125 -4.9375 C-27.07042358 -4.93967529 -27.07042358 -4.93967529 -28.35375977 -4.94189453 C-38.0003112 -5.00356179 -38.0003112 -5.00356179 -46.33056641 -1.07250977 C-46.79897949 -0.57420654 -47.26739258 -0.07590332 -47.75 0.4375 C-49.7109767 1.37248045 -51.69273293 2.2644639 -53.6875 3.125 C-59.76210021 6.03437531 -61.26920141 8.33887012 -63.75 14.4375 C-65.84375 15.16796875 -65.84375 15.16796875 -67.75 15.4375 C-67.935625 17.04625 -67.935625 17.04625 -68.125 18.6875 C-68.75 22.4375 -68.75 22.4375 -69.8125 24.4375 C-71.20577208 27.40981377 -70.80606342 30.18582144 -70.75 33.4375 C-70.91169678 34.25557129 -71.07339355 35.07364258 -71.23999023 35.91650391 C-71.98750838 41.07720603 -71.87194688 46.19104861 -71.84765625 51.3984375 C-71.8462413 52.54414215 -71.84482635 53.6898468 -71.84336853 54.87026978 C-71.8377858 58.51770678 -71.82523641 62.16508165 -71.8125 65.8125 C-71.80748277 68.29036369 -71.80292025 70.76822835 -71.79882812 73.24609375 C-71.78782201 79.30991691 -71.77110103 85.37370402 -71.75 91.4375 C-73.235 91.9325 -73.235 91.9325 -74.75 92.4375 C-74.8433431 84.57831786 -74.91408687 76.71926951 -74.95724869 68.85966969 C-74.97798121 65.20873522 -75.00602991 61.55818444 -75.05175781 57.9074707 C-75.0957361 54.37367255 -75.11924437 50.84023962 -75.12950897 47.30618858 C-75.14032181 45.32508149 -75.17146133 43.34411805 -75.20318604 41.36323547 C-75.20669128 26.97319799 -71.31142122 15.46520655 -61.625 4.8125 C-44.40990669 -11.49254433 -19.52059303 -13.16505112 0 0 Z " fill="#7A60AC" transform="translate(228.75,174.5625)"/>
<path d="M0 0 C0.66 0 1.32 0 2 0 C1.78537109 1.04220703 1.78537109 1.04220703 1.56640625 2.10546875 C0.96733421 5.16693345 0.44485302 8.23455833 -0.0625 11.3125 C-0.23910156 12.38113281 -0.41570312 13.44976562 -0.59765625 14.55078125 C-0.73042969 15.35902344 -0.86320312 16.16726562 -1 17 C-1.66 17 -2.32 17 -3 17 C-3.66 20.3 -4.32 23.6 -5 27 C-6.98 27 -8.96 27 -11 27 C-10.75601219 28.18277023 -10.75601219 28.18277023 -10.50709534 29.38943481 C-9.87666216 33.87817673 -9.86847598 38.24268992 -9.88647461 42.76904297 C-9.88632858 43.73552261 -9.88618256 44.70200226 -9.8860321 45.69776917 C-9.88672649 48.8792651 -9.89449667 52.06070184 -9.90234375 55.2421875 C-9.90420961 57.45321623 -9.90563272 59.66424537 -9.90663147 61.87527466 C-9.91044338 67.68507027 -9.92026235 73.49484076 -9.93133545 79.30462646 C-9.94157808 85.23693502 -9.9461352 91.16924765 -9.95117188 97.1015625 C-9.96188581 108.73438602 -9.97894631 120.36719092 -10 132 C-8.35 132 -6.7 132 -5 132 C-5 132.99 -5 133.98 -5 135 C-8.07536854 134.34099246 -10.07735566 133.46132217 -13 132 C-13 96.69 -13 61.38 -13 25 C-10.69 25 -8.38 25 -6 25 C-5.88785156 24.03964844 -5.77570313 23.07929688 -5.66015625 22.08984375 C-4.99935062 17.46420435 -3.72728883 13.04605164 -2.4375 8.5625 C-2.20353516 7.73556641 -1.96957031 6.90863281 -1.72851562 6.05664062 C-1.15636985 4.03661574 -0.57874796 2.01814324 0 0 Z " fill="#7E63AC" transform="translate(301,135)"/>
<path d="M0 0 C2 1 2 1 2.74609375 2.8125 C3.20679533 4.27008691 3.66513229 5.72842334 4.12109375 7.1875 C4.41113281 7.785625 4.70117188 8.38375 5 9 C5.99 9.33 6.98 9.66 8 10 C8.77112541 14.72314313 9.09764874 19.21521178 9 24 C4.70340347 26.43339445 1.61851301 27.37725357 -3.30908203 27.38818359 C-4.5370047 27.39764008 -5.76492737 27.40709656 -7.03005981 27.4168396 C-8.99904739 27.40773056 -8.99904739 27.40773056 -11.0078125 27.3984375 C-12.37971145 27.40046061 -13.75160935 27.40337403 -15.12350464 27.40713501 C-17.98983056 27.41154428 -20.85587492 27.40517086 -23.72216797 27.39111328 C-27.39199182 27.37398934 -31.06115894 27.38389099 -34.73095894 27.40183067 C-37.5603021 27.41267901 -40.38948986 27.40921801 -43.21883774 27.4014473 C-45.22850727 27.39848076 -47.2381829 27.40757103 -49.24783325 27.4168396 C-50.4694516 27.40738312 -51.69106995 27.39792664 -52.94970703 27.38818359 C-54.56137253 27.38460342 -54.56137253 27.38460342 -56.20559692 27.38095093 C-59.37541593 26.94882089 -60.77844044 26.28434519 -63 24 C-63.2421875 20.6796875 -63.2421875 20.6796875 -62.875 16.875 C-62.71644531 14.98394531 -62.71644531 14.98394531 -62.5546875 13.0546875 C-62.28011719 11.54261719 -62.28011719 11.54261719 -62 10 C-61.34 9.67 -60.68 9.34 -60 9 C-60.33 13.62 -60.66 18.24 -61 23 C-38.89 23 -16.78 23 6 23 C5.67 19.7 5.34 16.4 5 13 C4.154375 12.505 3.30875 12.01 2.4375 11.5 C1.633125 11.005 0.82875 10.51 0 10 C-0.46264811 6.63478574 -0.28510135 3.37686714 0 0 Z " fill="#8169AE" transform="translate(295,271)"/>
<path d="M0 0 C0.99 0.33 1.98 0.66 3 1 C3.05389087 2.95803507 3.09274217 4.91648909 3.125 6.875 C3.14820313 7.96554687 3.17140625 9.05609375 3.1953125 10.1796875 C3 13 3 13 1 15 C-1.64328003 15.21600342 -1.64328003 15.21600342 -5.03857422 15.16699219 C-6.30684052 15.15327576 -7.57510681 15.13955933 -8.88180542 15.12542725 C-10.27277548 15.09974577 -11.66373612 15.07354907 -13.0546875 15.046875 C-14.47713344 15.02577927 -15.89958865 15.00530012 -17.322052 14.9854126 C-20.30648472 14.94135519 -23.29067982 14.8899871 -26.27490234 14.83349609 C-30.09695061 14.76170195 -33.91900213 14.70763543 -37.74140739 14.65903854 C-40.68064422 14.61975772 -43.61967152 14.57118834 -46.55871964 14.51981354 C-47.96765853 14.49627205 -49.37664797 14.47557574 -50.78567123 14.45778656 C-52.758141 14.43145566 -54.73041184 14.39132041 -56.70263672 14.35058594 C-58.38569412 14.32155182 -58.38569412 14.32155182 -60.10275269 14.29193115 C-63 14 -63 14 -67 12 C-44.89 12 -22.78 12 0 12 C0 8.04 0 4.08 0 0 Z " fill="#7258A4" transform="translate(167,283)"/>
<path d="M0 0 C4.03010797 6.04516195 3.13246814 13.28436877 3.09765625 20.3046875 C3.0962413 21.38380402 3.09482635 22.46292053 3.09336853 23.57473755 C3.08778844 27.00818702 3.07523955 30.44157036 3.0625 33.875 C3.05748243 36.20833239 3.05291997 38.5416658 3.04882812 40.875 C3.03782553 46.58335575 3.02110721 52.29167315 3 58 C1.515 58.495 1.515 58.495 0 59 C0 39.53 0 20.06 0 0 Z " fill="#7258A9" transform="translate(154,208)"/>
<path d="M0 0 C2.31 0 4.62 0 7 0 C7 35.31 7 70.62 7 107 C5.515 107.495 5.515 107.495 4 108 C4.33 107.01 4.66 106.02 5 105 C5.09964268 103.57883171 5.14607193 102.15356349 5.15821838 100.72895813 C5.17290161 99.42278534 5.17290161 99.42278534 5.18788147 98.09022522 C5.19363693 97.13788498 5.1993924 96.18554474 5.20532227 95.2043457 C5.21522186 94.19928986 5.22512146 93.19423401 5.23532104 92.15872192 C5.26695078 88.83109913 5.29169939 85.50346206 5.31640625 82.17578125 C5.3369745 79.87077968 5.35797093 77.56578189 5.37937927 75.26078796 C5.43461326 69.18959616 5.48401673 63.11837024 5.53222656 57.04711914 C5.58243186 50.85364745 5.638123 44.66022538 5.69335938 38.46679688 C5.8009572 26.3112403 5.90239861 14.15564066 6 2 C4.35 2 2.7 2 1 2 C0.67 1.34 0.34 0.68 0 0 Z " fill="#7D62B1" transform="translate(106,160)"/>
<path d="M0 0 C2.98650485 2.19924592 5.13993726 4.38592192 7.25 7.4375 C3.31830895 7.4375 2.08572772 6.04330385 -0.75 3.4375 C-0.75 2.7775 -0.75 2.1175 -0.75 1.4375 C-1.48105957 1.15036133 -2.21211914 0.86322266 -2.96533203 0.56738281 C-4.65904503 -0.11984354 -6.34152564 -0.83701309 -7.99951172 -1.60644531 C-14.67104861 -4.59952202 -20.61628257 -5.2109149 -27.875 -5.3125 C-28.926875 -5.34214844 -29.97875 -5.37179688 -31.0625 -5.40234375 C-33.62507309 -5.47223211 -36.18677962 -5.52532401 -38.75 -5.5625 C-39.08 -6.2225 -39.41 -6.8825 -39.75 -7.5625 C-25.67520852 -10.75418134 -11.93586408 -8.0497688 0 0 Z " fill="#7D67AA" transform="translate(228.75,174.5625)"/>
<path d="M0 0 C0.33 0 0.66 0 1 0 C1 32.67 1 65.34 1 99 C2.65 99 4.3 99 6 99 C6 99.99 6 100.98 6 102 C3.83125748 101.49396008 2.00032373 101.00016187 0 100 C0 67 0 34 0 0 Z " fill="#7D5DB5" transform="translate(290,168)"/>
<path d="M0 0 C4.75 0.75 4.75 0.75 7 3 C7 6.3 7 9.6 7 13 C-13.79 13 -34.58 13 -56 13 C-56 12.67 -56 12.34 -56 12 C-36.53 11.67 -17.06 11.34 3 11 C3.99 8.69 4.98 6.38 6 4 C4.68 3.67 3.36 3.34 2 3 C2 2.34 2 1.68 2 1 C1.34 0.67 0.68 0.34 0 0 Z " fill="#F6EEFD" transform="translate(160,281)"/>
<path d="M0 0 C0 0.33 0 0.66 0 1 C-0.92232422 1.16435547 -0.92232422 1.16435547 -1.86328125 1.33203125 C-2.67152344 1.49058594 -3.47976562 1.64914063 -4.3125 1.8125 C-5.11300781 1.96332031 -5.91351563 2.11414063 -6.73828125 2.26953125 C-9.3209835 3.10366825 -10.1269403 4.08531676 -12 6 C-13.97096743 7.07581972 -15.97500616 8.09219045 -18 9.0625 C-21.16667026 10.58762428 -24.07249392 12.04832928 -27 14 C-23.99656761 6.82950174 -16.08346935 2.45289766 -9.15234375 -0.421875 C-5.78381709 -1.32666982 -3.35229479 -0.85590505 0 0 Z " fill="#765EA3" transform="translate(193,169)"/>
<path d="M0 0 C3.29054553 2.98361829 5.221442 5.90245093 7.1875 9.875 C7.69667969 10.88304687 8.20585937 11.89109375 8.73046875 12.9296875 C9.99605973 15.99047061 10.59410771 18.72352006 11 22 C10.34 22 9.68 22 9 22 C9 20.68 9 19.36 9 18 C8.01 17.67 7.02 17.34 6 17 C5.9175 16.05125 5.835 15.1025 5.75 14.125 C5.35242912 10.92113898 5.35242912 10.92113898 3.0625 9.6875 C2.381875 9.460625 1.70125 9.23375 1 9 C0.34 8.67 -0.32 8.34 -1 8 C-1.125 2.25 -1.125 2.25 0 0 Z " fill="#7E62B7" transform="translate(236,182)"/>
<path d="M0 0 C0.66 0 1.32 0 2 0 C2.02505615 0.68102783 2.0501123 1.36205566 2.07592773 2.0637207 C2.19190952 5.14683755 2.31462616 8.22965046 2.4375 11.3125 C2.47681641 12.38435547 2.51613281 13.45621094 2.55664062 14.56054688 C2.59853516 15.58857422 2.64042969 16.61660156 2.68359375 17.67578125 C2.72025146 18.62364502 2.75690918 19.57150879 2.79467773 20.5480957 C2.91430187 23.136171 2.91430187 23.136171 4 26 C2.68 26 1.36 26 0 26 C0 17.42 0 8.84 0 0 Z " fill="#7559A6" transform="translate(268,107)"/>
<path d="M0 0 C0.33 0 0.66 0 1 0 C1 2.97 1 5.94 1 9 C-0.98 9.99 -0.98 9.99 -3 11 C-4.21693876 13.43387753 -4.31959896 15.41838846 -4.5625 18.125 C-4.64628906 19.03507812 -4.73007813 19.94515625 -4.81640625 20.8828125 C-4.87699219 21.58148438 -4.93757813 22.28015625 -5 23 C-5.33 22.34 -5.66 21.68 -6 21 C-6.66 21 -7.32 21 -8 21 C-8 19.02 -8 17.04 -8 15 C-7.34 15 -6.68 15 -6 15 C-6.66 13.02 -7.32 11.04 -8 9 C-7.360625 8.87625 -6.72125 8.7525 -6.0625 8.625 C-5.381875 8.41875 -4.70125 8.2125 -4 8 C-3.67 7.34 -3.34 6.68 -3 6 C-2.01 6 -1.02 6 0 6 C0 4.02 0 2.04 0 0 Z " fill="#7E62B4" transform="translate(105,272)"/>
<path d="M0 0 C0.66 0 1.32 0 2 0 C1.85691406 0.69480469 1.71382813 1.38960937 1.56640625 2.10546875 C0.96733421 5.16693345 0.44485302 8.23455833 -0.0625 11.3125 C-0.23910156 12.38113281 -0.41570312 13.44976562 -0.59765625 14.55078125 C-0.73042969 15.35902344 -0.86320312 16.16726562 -1 17 C-1.66 17 -2.32 17 -3 17 C-3.33 19.64 -3.66 22.28 -4 25 C-4.66 25 -5.32 25 -6 25 C-5.33854315 19.33580057 -4.01244028 14.03729239 -2.4375 8.5625 C-2.20353516 7.73556641 -1.96957031 6.90863281 -1.72851562 6.05664062 C-1.15636985 4.03661574 -0.57874796 2.01814324 0 0 Z " fill="#7D66A6" transform="translate(301,135)"/>
<path d="M0 0 C0.66 0.33 1.32 0.66 2 1 C1.25 3.9375 1.25 3.9375 0 7 C-2.125 7.875 -2.125 7.875 -4 8 C-4.33 9.32 -4.66 10.64 -5 12 C-5.66 12 -6.32 12 -7 12 C-5.45052978 7.60983438 -3.33033996 3.33033996 0 0 Z " fill="#7E68A7" transform="translate(165,182)"/>
<path d="M0 0 C0.66 0 1.32 0 2 0 C2.28523825 3.37848865 2.45157778 6.6322091 2 10 C-0.375 12 -0.375 12 -3 13 C-3.66 13.66 -4.32 14.32 -5 15 C-4.67 13.02 -4.34 11.04 -4 9 C-2.68 9 -1.36 9 0 9 C0 6.03 0 3.06 0 0 Z " fill="#876DB4" transform="translate(239,271)"/>
<path d="M0 0 C10.74259681 5.96583144 10.74259681 5.96583144 14 11 C10.06830895 11 8.83572772 9.60580385 6 7 C6 6.34 6 5.68 6 5 C5.195625 4.731875 4.39125 4.46375 3.5625 4.1875 C2.716875 3.795625 1.87125 3.40375 1 3 C0.67 2.01 0.34 1.02 0 0 Z " fill="#866FB3" transform="translate(222,171)"/>
<path d="M0 0 C3.74525799 3.74525799 3.68909949 7.98270909 4 13 C3.34 12.67 2.68 12.34 2 12 C1.61781233 10.34385343 1.28604898 8.67542976 1 7 C0.16666667 4.83333333 0.16666667 4.83333333 -2 4 C-1.34 2.68 -0.68 1.36 0 0 Z " fill="#876CBD" transform="translate(98,131)"/>
<path d="M0 0 C0.33 0 0.66 0 1 0 C1.28328381 3.70787035 1.46346554 7.30318076 1 11 C-1.5 13.1875 -1.5 13.1875 -4 14 C-4 12.68 -4 11.36 -4 10 C-3.01 9.34 -2.02 8.68 -1 8 C-0.42251197 6.03638136 -0.42251197 6.03638136 -0.3125 3.875 C-0.209375 2.59625 -0.10625 1.3175 0 0 Z " fill="#8065B9" transform="translate(246,256)"/>
<path d="M0 0 C0.99 0.33 1.98 0.66 3 1 C2.195625 1.680625 1.39125 2.36125 0.5625 3.0625 C-2.42288711 6.48477302 -2.73781251 8.5428126 -3 13 C-3.33 13 -3.66 13 -4 13 C-4.49230769 5.73846154 -4.49230769 5.73846154 -2 2 C-1.34 1.34 -0.68 0.68 0 0 Z " fill="#E8DBF7" transform="translate(238,281)"/>
<path d="M0 0 C1.32 0.33 2.64 0.66 4 1 C4.33 2.65 4.66 4.3 5 6 C4.34 6 3.68 6 3 6 C3 6.99 3 7.98 3 9 C2.34 8.67 1.68 8.34 1 8 C1.020625 7.05125 1.04125 6.1025 1.0625 5.125 C1.22551826 2.09333717 1.22551826 2.09333717 0 0 Z " fill="#F2EDF5" transform="translate(295,281)"/>
<path d="M0 0 C2.3129482 2.3129482 2.49580975 3.47904875 3.125 6.625 C3.29257813 7.44226563 3.46015625 8.25953125 3.6328125 9.1015625 C3.81457031 10.04128906 3.81457031 10.04128906 4 11 C3.34 11 2.68 11 2 11 C2 9.68 2 8.36 2 7 C1.01 6.67 0.02 6.34 -1 6 C-0.67 4.02 -0.34 2.04 0 0 Z " fill="#8D75BC" transform="translate(243,193)"/>
<path d="M0 0 C1.48206495 0.254496 2.96068615 0.52911762 4.4375 0.8125 C5.67306641 1.03873047 5.67306641 1.03873047 6.93359375 1.26953125 C7.95646484 1.63111328 7.95646484 1.63111328 9 2 C9.33 2.99 9.66 3.98 10 5 C8.51800098 4.55090939 7.03944764 4.09043436 5.5625 3.625 C4.73878906 3.36976563 3.91507813 3.11453125 3.06640625 2.8515625 C1 2 1 2 0 0 Z " fill="#7560A1" transform="translate(212,168)"/>
<path d="M0 0 C0.99 0.33 1.98 0.66 3 1 C2.34 1 1.68 1 1 1 C0.731875 1.598125 0.46375 2.19625 0.1875 2.8125 C-0.98493467 4.97224808 -2.19369282 6.35790256 -4 8 C-3.6875 5.125 -3.6875 5.125 -3 2 C-2.01 1.34 -1.02 0.68 0 0 Z " fill="#EEE4F9" transform="translate(104,281)"/>
<path d="M0 0 C2.475 0.99 2.475 0.99 5 2 C5 2.99 5 3.98 5 5 C3.68 5 2.36 5 1 5 C0.67 3.35 0.34 1.7 0 0 Z " fill="#EBE3F3" transform="translate(288,267)"/>
<path d="M0 0 C0.99 0 1.98 0 3 0 C3 2.64 3 5.28 3 8 C2.67 7.34 2.34 6.68 2 6 C1.34 6 0.68 6 0 6 C0 4.02 0 2.04 0 0 Z " fill="#7A5EAA" transform="translate(97,287)"/>
<path d="M0 0 C2.76223278 2.76223278 2.57856291 5.20706617 3 9 C2.01 9 1.02 9 0 9 C0 6.03 0 3.06 0 0 Z " fill="#765AA5" transform="translate(161,272)"/>
<path d="M0 0 C1.32 1.32 2.64 2.64 4 4 C3.01 5.485 3.01 5.485 2 7 C0.4375 5.75 0.4375 5.75 -1 4 C-0.6875 1.8125 -0.6875 1.8125 0 0 Z " fill="#8E75BD" transform="translate(236,182)"/>
</svg>
